<svg width="76" height="23" viewBox="0 0 76 23" fill="none" xmlns="http://www.w3.org/2000/svg">
<path d="M16.7139 22H15.7471L14.1943 19.8467C13.8135 20.1885 13.4082 20.5107 12.9785 20.8135C12.5586 21.1064 12.1143 21.3652 11.6455 21.5898C11.1768 21.8047 10.6934 21.9756 10.1953 22.1025C9.70703 22.2295 9.20898 22.293 8.70117 22.293C7.59766 22.293 6.55762 22.1074 5.58105 21.7363C4.61426 21.3652 3.76465 20.8281 3.03223 20.125C2.30957 19.4121 1.73828 18.543 1.31836 17.5176C0.898438 16.4922 0.688477 15.3252 0.688477 14.0166C0.688477 12.7959 0.898438 11.6777 1.31836 10.6621C1.73828 9.63672 2.30957 8.75781 3.03223 8.02539C3.76465 7.29297 4.61426 6.72656 5.58105 6.32617C6.55762 5.91602 7.59766 5.71094 8.70117 5.71094C9.20898 5.71094 9.71191 5.77441 10.21 5.90137C10.708 6.02832 11.1914 6.2041 11.6602 6.42871C12.1289 6.65332 12.5732 6.91699 12.9932 7.21973C13.4229 7.52246 13.8232 7.84961 14.1943 8.20117L15.7471 6.34082H16.7139V22ZM12.6855 14.0166C12.6855 13.4697 12.5781 12.9424 12.3633 12.4346C12.1582 11.917 11.875 11.4629 11.5137 11.0723C11.1523 10.6719 10.7275 10.3545 10.2393 10.1201C9.76074 9.87598 9.24805 9.75391 8.70117 9.75391C8.1543 9.75391 7.63672 9.84668 7.14844 10.0322C6.66992 10.2178 6.25 10.4912 5.88867 10.8525C5.53711 11.2139 5.25879 11.6631 5.05371 12.2002C4.84863 12.7275 4.74609 13.333 4.74609 14.0166C4.74609 14.7002 4.84863 15.3105 5.05371 15.8477C5.25879 16.375 5.53711 16.8193 5.88867 17.1807C6.25 17.542 6.66992 17.8154 7.14844 18.001C7.63672 18.1865 8.1543 18.2793 8.70117 18.2793C9.24805 18.2793 9.76074 18.1621 10.2393 17.9277C10.7275 17.6836 11.1523 17.3662 11.5137 16.9756C11.875 16.5752 12.1582 16.1211 12.3633 15.6133C12.5781 15.0957 12.6855 14.5635 12.6855 14.0166ZM23.7744 22H19.7754V6.31152H20.7422L22.0605 8.17188C22.7051 7.58594 23.4375 7.13672 24.2578 6.82422C25.0781 6.50195 25.9277 6.34082 26.8066 6.34082H30.3369V10.3252H26.8066C26.3867 10.3252 25.9912 10.4033 25.6201 10.5596C25.249 10.7158 24.9268 10.9307 24.6533 11.2041C24.3799 11.4775 24.165 11.7998 24.0088 12.1709C23.8525 12.542 23.7744 12.9375 23.7744 13.3574V22ZM40.0635 22C39.0967 22 38.1885 21.8193 37.3389 21.458C36.4893 21.0869 35.7422 20.584 35.0977 19.9492C34.4629 19.3047 33.96 18.5576 33.5889 17.708C33.2275 16.8584 33.0469 15.9502 33.0469 14.9834V10.3252H31.0986V6.34082H33.0469V0.0712891H37.0312V6.34082H43.0957V10.3252H37.0312V14.9834C37.0312 15.4033 37.1094 15.7988 37.2656 16.1699C37.4219 16.5312 37.6367 16.8486 37.9102 17.1221C38.1836 17.3955 38.5059 17.6152 38.877 17.7812C39.248 17.9375 39.6436 18.0156 40.0635 18.0156H43.0957V22H40.0635ZM56.8799 20.1689C56.5576 20.4619 56.2109 20.7402 55.8398 21.0039C55.4785 21.2578 55.0977 21.4824 54.6973 21.6777C54.2969 21.8633 53.8818 22.0098 53.4521 22.1172C53.0322 22.2344 52.6025 22.293 52.1631 22.293C51.1963 22.293 50.2881 22.1221 49.4385 21.7803C48.5889 21.4385 47.8418 20.9551 47.1973 20.3301C46.5625 19.6953 46.0596 18.9287 45.6885 18.0303C45.3271 17.1221 45.1465 16.1064 45.1465 14.9834V6.31152H49.1309V14.9834C49.1309 15.5107 49.209 15.9844 49.3652 16.4043C49.5312 16.8145 49.751 17.1611 50.0244 17.4443C50.2979 17.7275 50.6152 17.9424 50.9766 18.0889C51.3477 18.2354 51.7432 18.3086 52.1631 18.3086C52.5732 18.3086 52.959 18.2158 53.3203 18.0303C53.6914 17.835 54.0137 17.5811 54.2871 17.2686C54.5605 16.9561 54.7754 16.6045 54.9316 16.2139C55.0879 15.8135 55.166 15.4033 55.166 14.9834V6.31152H59.165V22H58.1982L56.8799 20.1689ZM70.8398 22H61.6992V18.0156H70.8398C71.1133 18.0156 71.3477 17.918 71.543 17.7227C71.7383 17.5273 71.8359 17.293 71.8359 17.0195C71.8359 16.7363 71.7383 16.5508 71.543 16.4629C71.3477 16.375 71.1133 16.3311 70.8398 16.3311H66.6797C65.9863 16.3311 65.3369 16.1992 64.7314 15.9355C64.126 15.6719 63.5986 15.3154 63.1494 14.8662C62.7002 14.4072 62.3438 13.875 62.0801 13.2695C61.8262 12.6641 61.6992 12.0146 61.6992 11.3213C61.6992 10.6279 61.8262 9.97852 62.0801 9.37305C62.3438 8.76758 62.7002 8.24023 63.1494 7.79102C63.5986 7.3418 64.126 6.99023 64.7314 6.73633C65.3369 6.47266 65.9863 6.34082 66.6797 6.34082H74.7803V10.3252H66.6797C66.4062 10.3252 66.1719 10.4229 65.9766 10.6182C65.7812 10.8135 65.6836 11.0479 65.6836 11.3213C65.6836 11.6045 65.7812 11.8486 65.9766 12.0537C66.1719 12.249 66.4062 12.3467 66.6797 12.3467H70.8398C71.5234 12.3467 72.168 12.4639 72.7734 12.6982C73.3789 12.9229 73.9062 13.2402 74.3555 13.6504C74.8047 14.0605 75.1611 14.5537 75.4248 15.1299C75.6885 15.7061 75.8203 16.3359 75.8203 17.0195C75.8203 17.7129 75.6885 18.3623 75.4248 18.9678C75.1611 19.5635 74.8047 20.0908 74.3555 20.5498C73.9062 20.999 73.3789 21.3555 72.7734 21.6191C72.168 21.873 71.5234 22 70.8398 22Z" fill="#F7F7F7"/>
</svg>
